PathFileType	4	(X/Y/Z)	 s05c0402.trc
DataRate	CameraRate	NumFrames	NumMarkers	Units	OrigDataRate	OrigDataStartFrame	OrigNumFrames
200	200	5	50	mm	200	1501	2000
Frame#	Time	racr			lacr			c7			jug			rlel			rdr			llel			ldr			s2			lic			ric			lasi			rasi			rpsi			lpsi			rgt			lgt			rth1			rth2			rth3			rth4			rlfc			rmfc			rsh1			rsh2			rsh3			rsh4			rlmal			rmmal			rcal			rtoe			rmt5			lth1			lth2			lth4			lth3			llfc			lmfc			lsh1			lsh2			lsh3			lsh4			llmal			lmmal			lcal			ltoe			lmt5			SBIKE			LBIKE			RBIKE			
		X1	Y1	Z1	X2	Y2	Z2	X3	Y3	Z3	X4	Y4	Z4	X5	Y5	Z5	X6	Y6	Z6	X7	Y7	Z7	X8	Y8	Z8	X9	Y9	Z9	X10	Y10	Z10	X11	Y11	Z11	X12	Y12	Z12	X13	Y13	Z13	X14	Y14	Z14	X15	Y15	Z15	X16	Y16	Z16	X17	Y17	Z17	X18	Y18	Z18	X19	Y19	Z19	X20	Y20	Z20	X21	Y21	Z21	X22	Y22	Z22	X23	Y23	Z23	X24	Y24	Z24	X25	Y25	Z25	X26	Y26	Z26	X27	Y27	Z27	X28	Y28	Z28	X29	Y29	Z29	X30	Y30	Z30	X31	Y31	Z31	X32	Y32	Z32	X33	Y33	Z33	X34	Y34	Z34	X35	Y35	Z35	X36	Y36	Z36	X37	Y37	Z37	X38	Y38	Z38	X39	Y39	Z39	X40	Y40	Z40	X41	Y41	Z41	X42	Y42	Z42	X43	Y43	Z43	X44	Y44	Z44	X45	Y45	Z45	X46	Y46	Z46	X47	Y47	Z47	X48	Y48	Z48	X49	Y49	Z49	X50	Y50	Z50	
1501	7.5050	828.632345	1264.106868	-147.179922	816.965628	1283.589396	-445.717804	814.284841	1367.372864	-299.277863	745.780135	1211.014976	-300.027436	623.917283	1158.295315	50.786406	688.197675	960.768032	-43.285014	556.221309	1164.899037	-585.776714	682.591902	971.043279	-493.805729	222.355530	1266.149178	-197.898550	337.002833	1282.354379	-357.312545	397.150933	1216.385680	-85.955191	374.923398	1212.453940	-340.677021	405.389805	1152.898555	-133.167627	275.768475	1294.425874	-151.253319	263.869898	1317.290637	-234.930695	294.467418	1099.331030	-76.146062	266.697344	1205.274100	-394.012268	322.246514	989.561298	-71.480043	353.316296	905.930769	-73.697026	337.771046	819.194180	-78.808094	388.149761	909.874354	-85.244088	353.059769	669.006080	-102.739738	336.959475	669.479611	-210.645851	266.967993	602.387344	-74.064851	231.142787	522.199445	-86.398684	163.544587	468.908049	-88.788824	255.371638	506.660598	-112.048752	83.599069	354.311618	-97.339909	112.606806	372.667701	-177.543506	13.960892	382.335084	-144.047762	190.612842	143.366700	-155.407255	108.571481	201.772827	-87.408841	358.706202	1103.245299	-430.104673	439.349473	1072.630236	-435.424094	461.644531	1097.728459	-417.346419	494.865916	1002.515053	-448.010858	596.284993	888.648706	-430.717275	591.125897	868.053331	-319.620922	497.524678	810.781916	-447.699750	452.917632	736.122111	-440.141586	374.987642	693.782015	-435.892392	478.182740	712.050553	-423.991416	291.500278	593.685190	-431.124019	331.016239	604.723719	-357.670075	218.848233	590.832568	-389.970136	452.476992	413.048798	-389.050114	349.615613	449.276226	-455.760849	-257.897672	898.144405	-281.187709	-43.539733	85.387116	-474.921298	-51.787001	80.484913	-77.481319	
1502	7.5100	827.666452	1265.569265	-146.494722	816.756611	1281.087264	-445.769095	814.437263	1367.373874	-300.035976	746.002218	1210.103268	-299.119388	623.704064	1158.405164	49.643639	687.842673	960.518870	-44.185657	556.101862	1164.100829	-587.441809	682.539297	971.076251	-493.947743	222.681101	1268.200507	-197.255442	339.325765	1282.623744	-358.901605	396.304082	1218.802141	-84.917617	374.632085	1212.326221	-339.779922	407.902676	1155.592036	-128.056630	276.227662	1296.718179	-151.374242	264.179084	1318.660147	-234.418219	295.472449	1101.190917	-74.540413	265.202155	1205.975630	-392.915364	325.754445	990.521620	-70.766776	358.883224	907.704976	-73.907419	345.429155	820.629000	-78.906654	393.337797	912.609759	-85.838926	361.585408	671.114443	-103.378744	345.068945	672.615796	-211.690664	273.967865	606.420144	-74.319729	235.779319	527.323690	-86.482470	166.751834	475.897396	-88.516840	259.373594	511.084490	-112.452052	82.855874	362.954362	-96.942969	112.580133	380.656997	-177.449014	14.401889	393.031146	-144.192187	182.696559	148.509138	-155.288138	102.667856	209.482982	-87.648958	355.139909	1102.316759	-429.750138	435.137607	1070.342722	-436.214006	458.080921	1095.134327	-418.519570	489.016855	999.337638	-449.863059	589.341559	883.835440	-432.535435	585.554800	862.904026	-321.907536	491.341888	803.960584	-449.447057	448.567447	728.282200	-441.221483	371.681137	684.177338	-436.715692	474.415213	704.743693	-425.240512	290.592269	582.455027	-430.969812	329.952628	595.029305	-357.706098	218.212406	576.487379	-389.696623	459.117545	409.586511	-389.890624	354.425891	440.691372	-456.060350	-257.768931	898.231059	-281.706924	-43.531228	85.443885	-475.005677	-51.777998	80.496742	-77.509548	
1503	7.5150	827.956288	1267.074980	-146.247361	816.616551	1278.994349	-445.805119	814.644021	1367.462377	-300.749504	746.071691	1209.768512	-298.060783	623.596117	1158.706339	48.460319	687.552571	960.284461	-44.843003	556.075979	1163.354988	-589.017685	682.527383	971.095825	-494.123257	224.758832	1269.256249	-197.607982	339.455013	1282.039863	-358.923387	396.048471	1221.228245	-83.737761	374.356940	1211.878228	-338.895270	407.276668	1155.709105	-126.055960	278.244621	1297.789459	-152.785705	264.538570	1319.992682	-234.909855	296.989782	1102.907421	-73.014968	263.617128	1206.244437	-391.893672	329.538210	991.488306	-70.128917	364.422395	909.527831	-74.208477	352.940077	822.170831	-79.234074	398.806496	915.249051	-86.441911	369.989459	673.255421	-104.093691	354.624105	674.332013	-212.208321	281.573172	610.499515	-74.630406	240.618859	532.456080	-86.698182	170.002529	483.193215	-88.142494	263.408184	515.645156	-112.989518	82.648773	371.857924	-96.503317	112.870067	388.882755	-177.415737	15.001633	404.037697	-143.614398	175.150661	154.136275	-155.289883	97.396225	217.635281	-87.826099	351.523469	1100.819355	-429.494109	430.790436	1067.480466	-436.875973	454.458192	1091.901650	-419.644293	483.274238	995.463475	-450.872799	581.778374	878.297890	-434.870439	579.021917	857.594052	-323.653082	485.075724	796.264297	-450.396653	444.114843	719.479335	-442.327131	368.351450	673.563464	-437.365456	470.552871	696.690744	-426.236513	289.187788	569.861239	-430.013525	329.150687	584.422846	-357.451990	217.603833	561.427554	-388.333048	465.141276	405.376822	-391.268199	358.448207	431.646693	-456.612176	-257.816616	898.334541	-282.017329	-43.526171	85.411294	-475.031244	-51.734827	80.564034	-77.526060	
1504	7.5200	828.304240	1268.963223	-145.491252	816.513259	1277.227540	-445.745857	814.873745	1367.512825	-301.222245	746.406713	1209.631584	-296.901023	624.042432	1158.664195	46.894911	687.428158	960.131267	-45.281789	555.838047	1162.601303	-589.994409	682.532903	971.118648	-494.365898	224.848094	1270.519232	-197.030827	339.342645	1281.089642	-358.804434	396.110001	1223.346750	-82.653666	374.096826	1211.015374	-337.931352	407.550715	1158.181239	-125.039547	278.354906	1299.306270	-152.886029	264.767191	1320.963393	-235.461422	298.621913	1104.098679	-71.452181	262.017195	1205.985891	-390.890301	333.456756	992.534162	-69.587481	369.942994	911.309319	-74.382688	360.162430	823.806004	-79.760339	404.003831	917.809192	-87.233368	378.069202	675.513026	-104.947938	362.877000	676.970772	-213.127094	288.578028	614.407066	-75.192899	245.529764	537.496466	-87.000308	173.598569	490.018614	-88.026030	267.682209	520.275015	-113.621738	82.807191	380.725244	-96.114087	113.553466	396.990015	-177.365970	16.106689	415.077262	-142.955815	168.077456	160.030516	-155.329761	92.439699	225.870542	-87.990573	347.851713	1098.802198	-429.320026	426.385861	1064.003740	-437.478513	450.761401	1088.105539	-420.644685	477.366469	990.992694	-451.808162	573.794523	872.010481	-437.101856	572.701666	851.573622	-325.524707	478.796693	787.774880	-451.734761	439.659634	709.933092	-443.174375	365.088592	662.138173	-437.834380	466.681033	687.835460	-426.931860	288.220659	557.606185	-429.505346	328.347643	573.268053	-357.104448	217.051934	546.318752	-386.724148	470.370829	400.240751	-393.257787	361.804215	421.988125	-457.249905	-257.733825	898.333562	-282.086658	-43.522613	85.301069	-474.973812	-51.732520	80.572644	-77.524505	
1505	7.5250	828.866302	1270.881479	-145.145118	816.435999	1275.767420	-445.634066	815.034637	1367.676514	-301.647430	746.903561	1209.496619	-295.705376	624.426586	1158.803290	45.550211	687.466307	960.015833	-45.341269	555.953168	1162.160444	-591.354299	682.523591	971.087145	-494.735686	224.798075	1271.516047	-196.503682	339.335713	1279.774733	-358.863539	396.602930	1225.548187	-81.606274	373.904593	1209.867638	-337.079002	407.711575	1159.611901	-124.210083	279.450703	1299.751311	-153.416763	264.703491	1321.435684	-235.584576	300.336368	1104.926524	-69.865163	260.326528	1205.263460	-390.003118	337.324999	993.636676	-69.225685	375.220009	913.073648	-75.074054	367.123959	825.404703	-80.424959	408.956295	920.263966	-88.032074	385.811970	677.829037	-106.001167	370.488259	679.778834	-214.201629	295.492595	618.063036	-75.886520	250.380342	542.306612	-87.454049	177.203192	496.801517	-87.989688	271.712514	524.563660	-114.464183	83.236146	389.537025	-95.770822	111.648610	406.492647	-177.016849	17.601267	426.063853	-142.460732	161.368155	166.489437	-155.563421	88.004134	234.519477	-88.036010	344.212470	1096.316992	-429.133237	422.199726	1060.228895	-437.423372	446.984682	1083.743591	-421.636921	471.486994	986.106052	-452.348213	566.201960	865.450029	-437.511660	565.891363	845.082314	-327.166186	472.255243	778.352805	-452.532820	435.224602	699.715708	-443.640347	361.962866	650.065500	-437.891718	462.800225	678.625541	-427.133076	287.154570	544.583848	-428.320400	327.742656	561.591130	-356.320785	216.597165	531.218461	-384.342204	474.936538	394.177334	-395.442069	364.633658	411.965776	-457.835035	-257.618610	898.286654	-282.062770	-43.517670	85.323610	-475.032175	-51.725309	80.565662	-77.522569	
